<?xml version="1.0" encoding="UTF-8"?>
<svg id="Capa_1" data-name="Capa 1" xmlns="http://www.w3.org/2000/svg" viewBox="0 0 1109.49 916.21">
  <defs>
    <style>
      .cls-1 {
        fill: #fcd947;
      }

      .cls-1, .cls-2, .cls-3, .cls-4, .cls-5, .cls-6, .cls-7, .cls-8, .cls-9, .cls-10, .cls-11, .cls-12, .cls-13, .cls-14, .cls-15, .cls-16, .cls-17 {
        stroke-width: 0px;
      }

      .cls-18 {
        opacity: .7;
      }

      .cls-2 {
        fill: #c4f8ff;
      }

      .cls-3 {
        fill: #ff2c59;
      }

      .cls-4 {
        fill: #cc2347;
      }

      .cls-19 {
        opacity: .5;
      }

      .cls-20 {
        opacity: .6;
      }

      .cls-5 {
        fill: #731428;
      }

      .cls-6 {
        fill: #ff6339;
      }

      .cls-21 {
        opacity: .2;
      }

      .cls-7 {
        fill: #ff204e;
      }

      .cls-8 {
        fill: #371a45;
      }

      .cls-9 {
        fill: #f2af6b;
      }

      .cls-10 {
        fill: #29004f;
      }

      .cls-11 {
        fill: #c9351c;
      }

      .cls-12 {
        fill: #010101;
      }

      .cls-13 {
        fill: #ffb32c;
      }

      .cls-14 {
        fill: #d68163;
      }

      .cls-15 {
        fill: #e8502d;
      }

      .cls-16 {
        fill: #fff;
      }

      .cls-17 {
        fill: #00f8ff;
      }
    </style>
  </defs>
  <path class="cls-8" d="M292.59,807.55c-82.93,0-150.39-68.06-150.39-151.71V151.71C142.2,68.06,209.66,0,292.59,0h499.75c82.93,0,150.39,68.06,150.39,151.71v504.13c0,83.65-67.46,151.71-150.39,151.71h-499.75Z"/>
  <path class="cls-17" d="M792.33,771.63h-499.75c-63.39,0-114.78-51.84-114.78-115.79V151.71c0-63.95,51.39-115.79,114.78-115.79h499.75c63.39,0,114.78,51.84,114.78,115.79v504.13c0,63.95-51.39,115.79-114.78,115.79Z"/>
  <path class="cls-2" d="M545.97,150.99c-23.25-12.22-48.2-19.5-74.87-21.82-26.66-2.31-53.01,1.5-79.04,11.45l-111.94,42.77c-9.03,3.45-16.95,8.53-23.75,15.22-6.81,6.71-11.99,14.32-15.53,22.84-3.55,8.54-5.51,17.59-5.88,27.15-.38,9.58,1.19,19.02,4.69,28.34l100.15,266.71c3.5,9.33,8.56,17.54,15.2,24.63,6.63,7.11,14.04,12.58,22.24,16.41,8.19,3.85,17.03,5.99,26.54,6.46,9.49.48,18.76-1.02,27.79-4.47l111.94-42.77c26.03-9.95,48.27-24.69,66.73-44.25,18.46-19.55,32.37-41.68,41.76-66.38,9.38-24.69,14.18-51.01,14.4-78.98.22-27.95-4.72-55.38-14.82-82.27-10.09-26.88-24.4-50.72-42.93-71.52-18.53-20.79-39.41-37.3-62.65-49.53ZM529.15,353.56c-.6,11.09-3.15,21.49-7.63,31.2-4.5,9.71-10.73,18.46-18.73,26.22-8.01,7.78-17.21,13.64-27.61,17.62l-23.43,8.95-58.55-155.94,23.43-8.95c10.41-3.98,21.16-5.73,32.26-5.26,11.09.48,21.5,2.85,31.25,7.12,9.73,4.27,18.48,10.37,26.2,18.27,7.74,7.91,13.62,17.24,17.66,27.99,4.04,10.76,5.76,21.69,5.16,32.77Z"/>
  <g>
    <path class="cls-8" d="M531.71,790.71c-155.1-.9-279.45-130.2-279.45-286.67h0c0-4.27,3.43-7.73,7.67-7.73h554.5v10.85c0,156.9-126.98,284.45-282.73,283.55Z"/>
    <path class="cls-1" d="M803.68,507.16c0,150.61-121.03,272.7-270.33,272.7s-266-117.78-270.22-264.67c-.13-4.38,3.32-8.03,7.67-8.03h532.87Z"/>
    <path class="cls-13" d="M782.17,508.2c-30.38,117.07-135.95,203.45-261.52,203.45-118.79,0-219.68-77.3-255.96-184.75,9.53,141.89,126.62,254,269.69,254s270.33-122.09,270.33-272.7h-22.54Z"/>
    <path class="cls-8" d="M874.86,397.74c0,97.54-78.68,176.89-175.37,176.89s-175.35-79.34-175.35-176.89,78.65-176.91,175.35-176.91c71.12,0,132.51,42.97,159.99,104.49,1.8,4.01,3.44,8.11,4.95,12.29,6.75,18.77,10.43,39.03,10.43,60.14Z"/>
    <ellipse class="cls-1" cx="701.55" cy="398.42" rx="164.6" ry="166.05"/>
    <path class="cls-13" d="M720.09,530.54c-90.91,0-164.6-74.34-164.6-166.05,0-25.26,5.62-49.18,15.61-70.61-22.64,28.44-36.21,64.54-36.21,103.85,0,91.71,73.7,166.05,164.6,166.05,65.87,0,122.68-39.05,148.99-95.44-30.17,37.9-76.46,62.19-128.39,62.19Z"/>
    <path class="cls-12" d="M469.11,228.38s0,0,0,0c0,0,0,0,0,0Z"/>
    <path class="cls-12" d="M469.11,228.29c0-.12-.01-.08,0,0h0Z"/>
    <g>
      <path class="cls-3" d="M675.49,120.61c-8.9.8-17.72,2.03-26.49,3.69.11.4-26.4,9.25-26.27,7.8-7.45,5.72-12.82,13.62-14.5,23.05-1.05,5.92-.66,11.96-.02,17.9.63,5.95,1.38,11.88,2.2,17.81,3.28,23.74,7.83,47.31,13.7,70.53,3.29,13.02,6.94,25.95,10.97,38.75,19.83-6.97,39.77-13.61,59.93-19.65,14.23-4.26,28.56-8.26,43.04-11.56,15.11-3.44,30.43-5.86,45.82-7.63,4.53-.52,9.06-.98,13.6-1.38-6.69-37.95-13.66-76.74-31.93-111.04-2.62-4.91-5.21-9.81-9.69-13.25-3.58-2.75-7.63-4.88-10.44-8.48-13.1-5.17-27.28-7.49-41.28-7.86-9.55-.25-19.14.46-28.64,1.31Z"/>
      <path class="cls-4" d="M813.5,207.32c-6.02-16.56-14.43-32.03-25.24-45.91-9.22-11.84-19.88-22.45-32.97-29.65.68.45,1.35.9,2.02,1.38,3.82,2.75,6.47,6.16,8.78,10.26,4.75,8.42,8.8,17.23,12.32,26.24,7.2,18.45,12.05,37.77,16.04,57.15,2.25,10.93,4.22,21.91,6.17,32.89,9.64-.79,19.29-1.31,28.96-1.58-4.68-17.11-10.02-34.11-16.08-50.77Z"/>
      <path class="cls-3" d="M841.18,261.56c-17.04.11-34.08,1.01-51.04,2.74-15.47,1.58-30.91,3.81-46.12,7.07-13.76,2.95-27.37,6.61-40.88,10.55-29.25,8.52-58,18.6-87.08,27.66-3.38,1.25-6.75,2.51-10.13,3.76,19.05,4.76,37.81,11.35,57.39,13.43,20.83,2.21,41.72-1.37,61.55-7.75,19.97-6.43,39-15.39,58-24.23,19.5-9.06,39.42-17.75,60.04-23.87,11.22-3.33,22.77-6.03,34.45-7.06,2.9-.25,5.8-.4,8.71-.44-14.87-1.71-29.97-1.97-44.9-1.87Z"/>
      <path class="cls-5" d="M841.93,297.98c11.26,4.09,23.49,7.04,35.5,7.39,11.06.32,22.34,2.63,33.42.16,7.63-1.7,16.04-6.56,21.69-11.91,8.37-7.92,3.91-18.46-5.64-23.4-5.64-2.92-12.14-3.59-18.47-3.67-16.56-.22-32.91,3.19-48.94,7.06-7.12,1.72-14.47,2.69-21.58,4.69-3.63,1.02-7.21,2.21-10.72,3.61-1.1.44-8.77,4.79-9.36,4.43,7.57,4.67,15.67,8.59,24.08,11.64Z"/>
      <path class="cls-4" d="M529.05,243.22c.24,12.51.8,25.04,1.76,37.52,1.48,19.1,5.65,37.85,7.22,56.94,1.57-1.66,3.68-2.94,5.47-4.05.56-.35,1.11-.66,1.67-.98,2.84-1.6,5.79-2.88,8.83-4.06,8.11-3.15,16.24-6.18,24.4-9.13,6.86-2.49,13.76-4.87,20.68-7.21.88-.98,2.5-1.93,3.71-1.25,6.56-2.2,13.16-4.32,19.75-6.41,1.51-.55,3.03-1.08,4.52-1.6,1.58-.58,3.17-1.12,4.74-1.68-.01-.03-.03-.06-.03-.09-7.39-23.64-13.4-47.71-18.05-72.06-2.33-12.17-4.3-24.42-5.94-36.71-.81-6.12-1.56-12.24-2.2-18.37-.61-5.92-1.11-11.96-.13-17.87,1.38-8.34,5.89-16.47,12.33-22.08-6.11,3.07-12.23,6.12-18.14,9.62-8.31,4.91-16.4,10.27-24.12,16.05-15.26,11.42-30,24.39-38.45,41.87-4.02,8.34-6.66,17.43-7.68,26.65-.54,4.94-.46,9.93-.36,14.9Z"/>
      <path class="cls-3" d="M541.6,262.31c2.83,22.67,5.65,45.34,8.48,68,2.92-1.64,5.96-2.96,9.09-4.18,8.34-3.24,16.7-6.35,25.1-9.39,7.06-2.56,14.15-5.01,21.27-7.42.91-1.01,2.57-1.98,3.82-1.29,6.75-2.27,13.53-4.44,20.32-6.59,1.56-.56,3.11-1.11,4.65-1.64-.1-.27-.19-.55-.29-.81-13.26-36.99-20.17-75.94-27.02-114.64-1.45-8.2-2.92-16.54-1.95-24.8,1.16-9.89,5.9-19.31,13.12-26.11-14.71,8.81-28.52,19.01-42.32,29.2-9.15,6.74-18.45,13.65-25.01,22.97-15.15,21.53-12.52,50.53-9.25,76.71Z"/>
      <path class="cls-4" d="M800.31,286.65c-26.24,15.55-54.23,28.1-83.25,37.35-11.04,3.52-22.33,6.57-33.89,7.27-26.01,1.58-51.1-8.76-75.13-18.9,2.78,1.17,19.39-8.75,22.85-10.13,8.26-3.28,16.66-6.2,25.16-8.77,7.17-2.16,13.73-4.7,21.01-3.47,8.16,1.39,16.17,4.61,24.43,6.02,32.99,5.64,67.47,2.47,98.82-9.37Z"/>
      <path class="cls-8" d="M916.55,262.91c-26.95-6.33-55.15-7.65-82.97-6.86-4.96-19.83-11.04-39.79-18.86-58.63-7.81-18.83-18.71-35.79-32.62-50.63-12.92-13.78-28.73-23.25-46.93-28.07-18.74-4.96-37.82-4.77-56.98-3.17-9.93.83-19.88,2.04-29.64,4.13-5.47,1.17-10.83,2.9-16.2,4.46-17.18,4.99-33.22,13.83-48.24,23.5-16.63,10.72-33.74,23.83-44.96,40.45-9.41,13.94-14.97,30.82-15.21,47.7-.2,14.36.46,28.79,1.28,43.13,1.24,21.66,6.41,42.86,7.66,64.53.27,4.69,7.54,4.72,7.26,0-.05-.82-.13-1.64-.19-2.47,2.14-1.99,4.39-3.59,7.2-5.05,3.96-2.07,8.23-3.51,12.4-5.08,9.32-3.52,18.69-6.95,28.07-10.31,3.07-1.1,6.15-2.15,9.22-3.23.51,1.22,1.35,2.46,2.54,2.99.22.1.41.24.62.35.36.2.75.35,1.14.5.53.2,1.08.29,1.64.37,21.71,9.12,45.21,15.69,68.79,16.37,24.04.7,47.6-4.67,70-13.17,21.94-8.32,42.78-19.2,64.17-28.78,4.69-2.1,9.44-4.16,14.22-6.16,7.68,2.12,14.28,7.19,21.63,10.21,7.5,3.08,15.31,5.28,23.29,6.61,14.88,2.47,31,3.05,45.9.38,11.88-2.13,29.65-9.43,28.7-24.34-.74-11.54-13.22-17.45-22.96-19.74ZM603.18,316.99s0,0,0,0c0,0,0,.01,0,.02t0,0s0-.01,0-.02ZM767.4,141.72c34.74,28.63,48.45,72.68,60.87,114.5-6.23.23-12.43.56-18.59.96-2.62.17-5.23.4-7.84.61-4.49-25.06-9.2-50.12-16.98-74.39-3.88-12.09-8.6-23.94-14.44-35.21-1.22-2.36-2.45-4.78-3.85-7.09.27.22.56.4.83.62ZM626.02,132.98c11.39-4.11,23.44-7.2,35.37-9.01,27.22-4.13,58.03-5.62,84.13,4.92,2.73,3.63,6.99,5.69,10.41,8.68,4.43,3.88,7.09,9.72,9.74,14.89,5.74,11.2,10.33,22.97,14.16,34.97,7.35,23.08,11.62,47.05,15.79,70.88-28.49,2.67-56.51,7.85-84.17,15.54-25.14,6.99-49.91,15.1-74.41,23.99-.28-.04-.57-.05-.86-.06-6.86-21.93-12.75-44.19-17.38-66.71-2.34-11.38-4.38-22.83-6.12-34.32-1.78-11.74-4.28-24.15-3.74-36.07.47-10.38,4.6-18.58,11.48-25.48,1.85-.77,3.71-1.53,5.59-2.21ZM579.81,315.6c-10.03,3.57-20.08,7.16-29.95,11.16-2.77,1.12-7.1,2.86-10.72,5.23-1.83-16.19-5.12-32.19-6.54-48.44-1.05-12.01-1.49-24.1-1.8-36.15-.36-14.2.4-27.63,5.93-40.98,7.49-18.08,22.22-31.5,37.41-43.09,11.81-9.01,24.42-17.7,37.87-24.35-2.75,3.52-4.92,7.53-6.36,11.59-4.04,11.41-1.43,24.4,0,36.08,3,24.73,7.42,49.24,13.09,73.48,3.04,12.99,6.58,25.84,10.48,38.59-1.47.38-2.87.79-4.05,1.1-5.13,1.35-10.13,3.41-15.15,5.15-10.08,3.52-20.16,7.03-30.21,10.61ZM612.25,311.93c12.3-3.58,24.55-7.25,36.75-11.24,15.53-5.07,31.11-9.99,46.76-14.69,28.94-8.69,58.07-15.74,88.11-19.2,17.63-2.03,35.36-3.12,53.11-3.38,10.1-.15,20.27-.12,30.4.36-5.45.91-10.86,2.11-16.18,3.5-20.66,5.4-40.78,13.43-60.29,22.09-38.11,16.93-76.25,37.59-119.14,35.92-21.15-.82-41.29-7.93-61.83-12.56.77-.27,1.53-.54,2.3-.8ZM929.77,291.98c-3.41,3.77-8.74,6.39-12.93,7.85-7.56,2.64-15.61,3.21-23.55,3.38-8.64.19-17.31-.09-25.86-1.44-8.37-1.32-16.58-3.61-24.45-6.76-5.85-2.34-11.67-5.49-17.77-7.35,15.95-6.38,32.41-11.66,49.39-13.76,12.44-1.53,25.23-1.36,37.62.58,5.3.83,11.42,2.08,15.76,5.48,3.77,2.96,3.96,8.1,1.8,12.01Z"/>
      <path class="cls-8" d="M688.51,256.66c-2.48-.01-4.72-.43-6.73-1.25-2.03-.83-3.77-2.06-5.22-3.7-1.46-1.64-2.42-3.57-2.88-5.76l-13.23-62.85c-.46-2.2-.35-4.33.33-6.39.68-2.04,1.77-3.88,3.28-5.52,1.49-1.61,3.37-2.93,5.63-3.96,2.23-1.01,4.63-1.62,7.22-1.83l29.15-2.34c6.1-.49,11.81.15,17.19,1.85,5.2,1.65,9.77,4.04,13.75,7.13,3.89,3.02,7.16,6.62,9.85,10.79,2.65,4.12,4.48,8.58,5.5,13.42,1.02,4.84,1.15,9.67.39,14.52-.77,4.91-2.31,9.54-4.65,13.9-2.39,4.46-5.6,8.5-9.69,12.15-4.22,3.76-9.19,6.69-14.96,8.74l-27.58,9.81c-2.44.87-4.89,1.3-7.33,1.29ZM700.37,190.14l6.95,33.01,5.67-1.52c2.45-.66,4.68-1.7,6.69-3.12,1.98-1.4,3.6-3,4.88-4.8,1.26-1.78,2.14-3.71,2.65-5.8.5-2.08.53-4.17.08-6.28-.44-2.11-1.31-4.01-2.61-5.7-1.3-1.7-2.88-3.11-4.76-4.22-1.89-1.12-4.02-1.92-6.39-2.38-2.41-.47-4.86-.51-7.37-.11l-5.79.94Z"/>
    </g>
    <g>
      <path class="cls-6" d="M923.63,411.73c-21.99-8.2-42.05-33.78-67.22-28.95-43.45,8.33-38.85,51.28-85.27,62.71-20.82,5.13-31.67,6.28-32.65,16.22-1.79,18.04,34.01,29.75,55.97,34.33,75.52,11.56,158.82-20.41,179.05-59.05,6.52-22.36-32.11-18.64-49.88-25.26Z"/>
      <g class="cls-19">
        <path class="cls-16" d="M743.1,473.72c-.13-.98-.15-1.98-.05-3,.97-9.93,11.83-11.09,32.65-16.22,46.42-11.43,41.75-54.71,85.27-62.71,20.96-3.85,35.13,22.21,67.22,28.96,16.65,3.5,33.62,1.07,46.04,11.71.2-17.32-34.14-14.59-50.6-20.73-21.99-8.2-42.05-33.78-67.22-28.96-43.44,8.33-38.85,51.28-85.27,62.71-20.81,5.13-31.66,6.28-32.65,16.22-.43,4.38,1.36,8.39,4.61,12.02Z"/>
      </g>
      <path class="cls-15" d="M794.46,496.04c75.51,11.56,158.8-20.42,179.04-59.05,1.94-6.68-.13-11.03-4.5-14.01-21.74,37.88-103.71,68.77-178.12,57.37-16.66-3.47-41.24-11.04-51.39-22.36-.54,1.09-.88,2.31-1.01,3.71-1.78,18.05,34,29.76,55.98,34.34Z"/>
      <path class="cls-8" d="M793.84,500.13l-.21-.04c-14.49-3.02-61.6-14.75-59.22-38.79,1.15-11.61,11.96-14.17,28.33-18.04,2.32-.55,4.79-1.13,7.43-1.78,21.9-5.4,31.47-17.92,41.59-31.18,10.18-13.34,20.69-27.12,43.88-31.57,17.87-3.43,32.8,6.65,47.23,16.39,7.62,5.14,14.81,10,22.18,12.75,4.77,1.78,11.38,2.78,18.37,3.84,13.41,2.03,27.28,4.14,32.69,12.7,2.42,3.83,2.87,8.47,1.32,13.77l-.12.4-.19.37c-10.43,19.93-36.34,38.27-71.08,50.33-7.99,2.77-16.15,5.12-24.42,7.04-29.18,6.77-59.6,8.16-87.79,3.84ZM969.2,428.84c-3.41-5.39-15.94-7.29-27-8.97-7.42-1.13-14.43-2.19-19.99-4.27h0c-8.27-3.09-16.21-8.45-23.89-13.63-13.66-9.22-26.56-17.93-41.14-15.14-20.12,3.85-29.24,15.82-38.92,28.49-10.05,13.17-21.45,28.09-46.14,34.17-2.66.66-5.16,1.25-7.5,1.8-15.96,3.77-21.5,5.36-22.04,10.81-1.26,12.69,26.37,24.36,52.61,29.85,75.32,11.49,155.4-20.88,174.5-56.53.74-2.76.58-4.92-.48-6.59ZM923.61,411.73h.01s-.01,0-.01,0Z"/>
      <path class="cls-11" d="M849.36,426.58c-.61-1.84-2.59-9.67-7.13-7.65-3.82,1.7-.74,8.01,7.13,7.65Z"/>
      <path class="cls-8" d="M911.9,465.6c-24.17,6.7-49.02,12.04-74.02,13.71-28.15,1.68-57.29.72-83.55-10.9,11.27,7.64,24.63,12.01,38.04,14.36,40.23,6.87,82.53-.28,119.53-17.17h0Z"/>
    </g>
    <g>
      <ellipse class="cls-8" cx="779.75" cy="371.4" rx="25.62" ry="36.15"/>
      <ellipse class="cls-16" cx="774.27" cy="359.96" rx="8.8" ry="12.42"/>
    </g>
    <g>
      <path class="cls-1" d="M389.93,599.31c2.69,19.62,30.24,31.85,30.24,31.85,0,0-14.88.41-14.74,10.3.26,20.29,54.52,46.8,124.68,40.96,23.24-3.66,38.82-9.29,52.51-17.02,50.1-41.22,20.56-120.83-24.4-141.42-9.64-3.71-18.91-5.59-28.11-6.73-24.66-3.28-86.96,1.7-120.48,33.02-15.53,14.51,5.76,17.27,5.76,17.27-6.46,4.28-27.49,16.96-25.46,31.77Z"/>
      <path class="cls-1" d="M389.81,596.71c-.04.85,0,1.73.12,2.61,2.69,19.62,30.24,31.85,30.24,31.85,0,0-14.88.41-14.74,10.3.26,20.29,54.52,46.8,124.68,40.96,23.24-3.66,38.82-9.29,52.51-17.02,17.89-14.73,25.64-34.37,26.14-54.45.88-36.13-21.64-73.73-50.54-86.97-9.64-3.71-18.91-5.59-28.11-6.73-24.66-3.28-86.96,1.7-120.48,33.02-15.53,14.51,5.76,17.27,5.76,17.27-6.07,4.02-25.05,15.49-25.58,29.16Z"/>
      <g class="cls-18">
        <path class="cls-16" d="M477.51,557.89c0-1.75-63.53,13.99-74.3,30.48-8.06,12.36,74.27-21.58,74.3-30.48Z"/>
      </g>
      <g class="cls-18">
        <path class="cls-16" d="M510,522.92c-.78-2.77-27.26,1.11-48.89,8.53-25.92,8.9-41.46,20.79-41.46,20.79,0,0,24.34-5.9,47.35-12.88,21.71-6.59,43.8-13.57,42.99-16.44Z"/>
      </g>
      <g class="cls-18">
        <path class="cls-16" d="M590.91,627.97c2.77-.66,10.53-18.51,1.53-49.52-8.05-27.77-25.75-42.64-29.47-44.68-3.73-2.04,13.24,21.82,20.52,49.48,5.81,22.1,4.54,45.4,7.42,44.72Z"/>
      </g>
      <path class="cls-13" d="M389.81,596.71c-.04.85,0,1.73.12,2.61,2.69,19.62,30.24,31.85,30.24,31.85,0,0-14.88.41-14.74,10.3.26,20.29,54.52,46.8,124.68,40.96,23.24-3.66,38.82-9.29,52.51-17.02,17.89-14.73,25.64-34.37,26.14-54.45-36.47,89.01-221.28,32.64-175.3,25.82,16.43,3.9,38.51,5.91,57.91,5.57-36.83-8.72-91.41-25.22-101.56-45.63Z"/>
      <path class="cls-8" d="M530.11,517.25c-31.55-5.08-66.25-.53-95.77,11.92-9.12,4.05-17.96,9.2-25.68,15.69-3.17,2.68-7.66,6.52-9.13,11.48-2.95,9.77,7.25,15.09,15.24,15.97,0,0-2.01-8.8-2.01-8.8-6.24,4.15-12.67,8.73-17.98,14.35-4.62,4.79-9.01,11.34-9.27,18.51.12,16.74,14.47,28.52,27.5,36.33,1.71.99,3.31,1.87,5.25,2.8l1.76-9.07c-1.19.02-2.02.09-3.02.2-23.12,3.07-19.39,23.59-4.11,34.83,16.75,12.57,37.06,18.14,57.28,21.32,19.83,2.91,40.2,2.75,59.92-.36-26.27.2-52.72-2.77-77.6-10.98-11.91-4.08-24.11-9.28-33.73-17.3-3.7-3.11-10.32-9.79-7.88-14.53,2.01-2.6,6.56-3.37,9.77-3.75,2.57-.27,4.45-2.59,4.18-5.18-.18-1.76-1.29-3.19-2.79-3.85-2.97-1.33-6.2-3.11-9.01-4.9-8.59-5.5-17.99-13.86-18.95-24.17.27-11.68,14.99-20.41,23.92-26.2,3.68-2.21,2.43-8.18-1.75-8.76-2.36-.35-5.53-1.42-6.79-2.53-.82-.77-.79-.73-.05-2.27,23.52-29.64,84.32-42.33,120.69-40.75h0Z"/>
      <path class="cls-8" d="M558.22,523.98c38.01,25.31,59.63,82.94,36.58,124.65-3.25,5.99-7.47,11.49-12.19,16.76,6.03-3.66,11.41-8.53,15.97-14.17,32.38-40.77,7.29-111.25-40.36-127.25h0Z"/>
      <path class="cls-8" d="M491.37,642.34c-11.99-.97-23.97-2.58-35.72-5.09-11.44-2.54-23.1-5.66-33.74-10.43,0,0-3.48,8.71-3.48,8.71,23.71,6.84,48.48,7.87,72.95,6.81h0Z"/>
      <path class="cls-8" d="M484.33,550.69c-23.87,1.97-47.45,5.91-70.57,12.45,0,0,3.25,8.8,3.25,8.8,21.56-9.3,44.35-16.26,67.32-21.26h0Z"/>
    </g>
    <path class="cls-8" d="M699.33,367.34c10.03,22.61,28.6,56.47,40.59,61.69,10.53,4.6,62.21-2.65,81.83-19.36,19.62-16.71,15.8-81.77,15.8-81.77l-4.58-13.36c-25.5-7.55-82.91-1.06-116.75,10.43-14.6,4.95-28.34,11.66-30.87,17.5-2.66,6.13,7.52,10.27,14,24.88ZM705.58,345.13c9.48-12.21,85.59-29.79,116.37-20.69,7.73,3.57,7.12,65.36-9.33,79.1-15.29,12.77-54.03,19.52-66.39,15.71-17.22-5.31-45.67-67.65-40.65-74.11Z"/>
    <path class="cls-8" d="M700.54,357.18l-120.98,42.67c-5.04,1.78-8.36,6.65-8.18,12.04l.06,1.92c.11,3.34,3.39,5.63,6.53,4.55l128.77-44.41-6.2-16.77Z"/>
    <path class="cls-8" d="M855.54,322.39l-1.19,3.91s-8.56-5.6-16.72,2.97c-6.6,6.91-13.82-9.66-7.96-13.54,6.4-4.29,13.67-5.1,19.35-4.86,2.31,3.74,4.48,7.58,6.52,11.52Z"/>
  </g>
  <path class="cls-8" d="M924.92,916.21c-10.76,0-21.03-2.15-30.54-6.38-9.37-4.17-17.7-9.98-24.76-17.27-6.37-6.58-11.57-14.22-15.48-22.75-.02.04-.04.09-.05.13-3.68,8.86-8.8,16.73-15.23,23.37-6.44,6.65-14.09,11.97-22.73,15.79-8.75,3.88-18.22,5.84-28.15,5.84s-19.19-1.97-27.94-5.84c-8.64-3.82-16.28-9.14-22.73-15.79-6.42-6.64-11.55-14.5-15.23-23.37-.75-1.82-1.43-3.66-2.03-5.52-3.89,8.28-8.8,15.8-14.64,22.42-7.52,8.51-16.59,15.37-26.94,20.39-10.57,5.12-22.07,7.72-34.19,7.72h-44.2c-5.29,0-10.39-1.07-15.17-3.18-4.69-2.06-8.82-4.91-12.27-8.48-2.62-2.7-4.85-5.82-6.63-9.28-1.72,3.85-4.01,7.31-6.81,10.3-3.04,3.26-6.71,5.87-10.89,7.74-4.25,1.92-8.84,2.9-13.61,2.9s-9.41-.99-13.64-2.95c-3.98-1.84-7.56-4.37-10.62-7.54-2.16-2.23-4.02-4.73-5.55-7.47-1.53,2.74-3.4,5.24-5.56,7.48-3.05,3.15-6.63,5.69-10.62,7.54-4.22,1.95-8.81,2.95-13.62,2.95s-9.36-.98-13.63-2.91c-4.16-1.87-7.83-4.48-10.88-7.75-2.89-3.08-5.24-6.69-6.98-10.71-1.85-4.26-2.79-8.89-2.79-13.74v-49.26c0-1.1-.24-1.7-.98-2.46-.72-.74-1.17-.87-1.96-.87-1.13,0-1.59.27-2.17.88-.73.75-.96,1.35-.96,2.45v49.26c0,4.84-.94,9.47-2.79,13.75-1.74,4.02-4.09,7.62-6.99,10.72-3.04,3.26-6.7,5.86-10.88,7.74-4.26,1.92-8.84,2.9-13.62,2.9s-9.41-.99-13.64-2.95c-3.98-1.84-7.56-4.37-10.62-7.54-3.03-3.12-5.47-6.79-7.23-10.87-1.85-4.25-2.79-8.88-2.79-13.74v-49.26c0-1.1-.24-1.7-.98-2.46-.72-.75-1.17-.87-1.96-.87s-1.23.12-1.97.88c-.73.76-.97,1.35-.97,2.45v49.26c0,4.85-.94,9.47-2.79,13.75-1.77,4.08-4.2,7.74-7.24,10.87-3.05,3.16-6.63,5.69-10.62,7.54-4.22,1.95-8.81,2.95-13.62,2.95s-9.36-.98-13.63-2.9c-4.17-1.87-7.83-4.48-10.88-7.75-2.89-3.08-5.24-6.69-6.98-10.71-1.85-4.25-2.79-8.88-2.79-13.74v-.13c-2.79,4.33-5.97,8.34-9.52,12.01-6.92,7.15-15.12,12.85-24.36,16.96-9.37,4.16-19.5,6.27-30.11,6.27s-20.74-2.12-30.05-6.29c-9.16-4.1-17.31-9.8-24.22-16.94-6.8-7.02-12.24-15.31-16.18-24.65-3.67,7.24-8.14,13.87-13.36,19.77-7.52,8.51-16.59,15.37-26.94,20.39-10.57,5.12-22.07,7.72-34.19,7.72h-44.2c-5.29,0-10.39-1.07-15.17-3.18-4.69-2.06-8.82-4.91-12.27-8.48-3.43-3.53-6.17-7.77-8.15-12.57-1.99-4.82-3.01-9.99-3.01-15.34v-105.33c0-5.37,1.03-10.53,3.05-15.33,1.94-4.63,4.63-8.78,7.99-12.35,3.48-3.69,7.64-6.63,12.39-8.71,4.79-2.11,9.89-3.17,15.17-3.17h44.2c12.11,0,23.62,2.6,34.19,7.72,10.36,5.02,19.42,11.88,26.94,20.39,7.41,8.39,13.31,18.21,17.54,29.2.69,1.78,1.32,3.58,1.89,5.41,2.93-4.68,6.31-9.01,10.11-12.94,6.9-7.13,15.05-12.83,24.22-16.94,9.32-4.17,19.43-6.29,30.05-6.29s20.73,2.11,30.11,6.27c9.25,4.11,17.44,9.81,24.36,16.96,6.15,6.36,11.19,13.75,15.02,22.01.03-.08.07-.16.1-.23,3.68-8.87,8.81-16.73,15.23-23.37,6.45-6.66,14.09-11.97,22.73-15.79,8.76-3.88,18.16-5.84,27.94-5.84s18.2,1.69,26.03,5.03c4.05,1.73,7.8,3.68,11.25,5.85,3.49-2.17,7.26-4.13,11.31-5.85,7.83-3.34,16.59-5.03,26.04-5.03s19.18,1.96,27.94,5.84c8.64,3.83,16.29,9.14,22.73,15.8,4.67,4.82,8.65,10.28,11.89,16.32v-2.84c0-4.85.94-9.47,2.79-13.75,1.76-4.07,4.2-7.73,7.24-10.87,3.06-3.15,6.62-5.69,10.62-7.54,4.25-1.96,8.84-2.95,13.64-2.95s9.33.97,13.61,2.9c4.18,1.88,7.84,4.49,10.89,7.74.8.86,1.57,1.76,2.28,2.69v-.31c0-5.37,1.03-10.53,3.05-15.34,1.94-4.62,4.63-8.78,7.99-12.34,3.48-3.69,7.64-6.63,12.39-8.71,4.79-2.11,9.89-3.17,15.17-3.17h44.2c12.11,0,23.62,2.6,34.19,7.72,10.36,5.02,19.42,11.88,26.94,20.39,5.36,6.07,9.93,12.88,13.64,20.35.08-.18.15-.37.23-.55,1.74-4.01,4.09-7.61,6.99-10.71,3.04-3.25,6.7-5.86,10.87-7.74,4.3-1.93,8.88-2.9,13.63-2.9s9.38.99,13.62,2.95c4.01,1.86,7.57,4.39,10.62,7.53,3.05,3.15,5.48,6.81,7.24,10.87,1.86,4.3,2.8,8.92,2.8,13.76v49.27c0,1.1.23,1.69.97,2.45.74.76,1.18.88,1.97.88s1.34-.15,2.16-.98c.75-.76.98-1.3.98-2.35v-49.27c0-4.84.94-9.47,2.79-13.75,1.76-4.06,4.19-7.72,7.23-10.87,3.06-3.15,6.63-5.69,10.62-7.54,4.25-1.96,8.84-2.95,13.64-2.95s9.33.97,13.61,2.9c4.18,1.88,7.83,4.48,10.88,7.73,2.91,3.12,5.26,6.72,6.99,10.72,1.84,4.24,2.77,8.81,2.8,13.58,2.9-4.51,6.21-8.71,9.93-12.55,7.05-7.28,15.38-13.09,24.76-17.27,9.52-4.23,19.79-6.38,30.54-6.38,11.96,0,22.88,2.14,32.45,6.36,8.83,3.9,16.8,9.37,23.73,16.3v-12.82c0-4.85.94-9.47,2.79-13.75,1.77-4.08,4.2-7.74,7.24-10.87,3.05-3.15,6.62-5.68,10.61-7.53,4.25-1.96,8.83-2.95,13.64-2.95s9.34.97,13.61,2.89c4.19,1.89,7.84,4.49,10.89,7.75,2.89,3.09,5.24,6.7,6.98,10.71,1.86,4.3,2.8,8.92,2.8,13.76v3.11l.97-1.05c3.32-3.66,7.34-6.43,11.89-8.19,4.15-1.61,8.43-2.43,12.69-2.43,9.49,0,17.95,3.55,24.46,10.27,6.43,6.65,9.83,15.23,9.83,24.84,0,4.44-.78,8.83-2.31,13.04-1.68,4.62-4.33,8.72-7.9,12.18l-19.11,18.74,19.16,18.78c3.49,3.38,6.14,7.42,7.82,11.94,1.55,4.16,2.34,8.55,2.34,13.03,0,9.61-3.4,18.19-9.82,24.83-6.51,6.72-14.97,10.27-24.46,10.27-4.17,0-8.36-.75-12.44-2.22-4.65-1.68-8.76-4.45-12.19-8.24l-5.96-6.49c-1.36,2.29-2.95,4.4-4.74,6.32-3.04,3.26-6.71,5.87-10.89,7.74-4.25,1.92-8.84,2.9-13.61,2.9s-9.41-.99-13.64-2.95c-3.98-1.84-7.56-4.37-10.62-7.54-3.03-3.12-5.47-6.79-7.23-10.87-.3-.68-.57-1.37-.81-2.06-.16.17-.33.35-.49.52-7.2,7.6-15.71,13.63-25.21,17.82-9.56,4.22-20.48,6.37-32.45,6.37ZM924.92,825.96c-1.25,0-2.38.23-3.45.71-1.22.55-2.25,1.26-3.13,2.18-.94.97-1.66,2.06-2.22,3.36-.47,1.09-.7,2.29-.7,3.66s.24,2.68.75,3.87c.56,1.33,1.27,2.42,2.17,3.36.89.92,1.91,1.63,3.14,2.18,1.07.48,2.2.72,3.45.72,1.79,0,2.45-.3,2.46-.3,1.74-1.17,3.46-2.49,5-3.87,2.3-2.05,4.79-4,7.4-5.81-.02-.01-.04-.03-.06-.04-2.58-1.83-5.05-3.8-7.35-5.85-1.52-1.35-3.2-2.67-4.96-3.89-.23-.07-.97-.26-2.49-.26ZM227.74,827.24c-2.4,0-4.04.68-5.66,2.36-1.69,1.74-2.41,3.62-2.41,6.28s.72,4.53,2.4,6.27c1.63,1.68,3.27,2.36,5.67,2.36s4.04-.68,5.66-2.36c1.69-1.75,2.41-3.62,2.41-6.28s-.72-4.53-2.41-6.28c-1.62-1.68-3.27-2.36-5.66-2.36ZM973.1,835.97c2.4,1.34,4.68,2.97,6.83,4.88.4.35.79.72,1.17,1.09v-12.07c-2.37,2.34-5.05,4.39-8,6.11ZM77.4,840.61c1.25-.23,2.47-.61,3.68-1.13,2.36-1.02,4.35-2.34,6.07-4.03,1.67-1.64,2.97-3.55,3.97-5.83.94-2.15,1.4-4.41,1.4-6.91s-.46-4.75-1.4-6.9c-1-2.29-2.3-4.2-3.98-5.85-1.71-1.68-3.7-3-6.07-4.03-1.2-.52-2.42-.89-3.67-1.13v35.8ZM638.88,840.61c1.25-.23,2.47-.61,3.68-1.13,2.36-1.02,4.35-2.34,6.07-4.03,1.67-1.64,2.97-3.55,3.97-5.83.94-2.15,1.4-4.41,1.4-6.91s-.46-4.75-1.4-6.9c-1-2.29-2.3-4.2-3.98-5.85-1.71-1.68-3.7-3-6.07-4.03-1.2-.52-2.42-.89-3.67-1.13v35.8Z"/>
  <path class="cls-7" d="M273.28,789.05c-5.83-6.02-12.64-10.76-20.46-14.23-7.81-3.47-16.18-5.2-25.08-5.2s-17.24,1.74-24.98,5.2c-7.74,3.47-14.53,8.21-20.35,14.23-5.83,6.02-10.42,13.06-13.78,21.13-3.36,8.07-5.04,16.64-5.04,25.7s1.68,17.84,5.04,25.91c3.36,8.07,7.95,15.11,13.78,21.13,5.82,6.02,12.61,10.76,20.35,14.23,7.74,3.47,16.07,5.2,24.98,5.2s17.27-1.73,25.08-5.2c7.81-3.47,14.63-8.21,20.46-14.23,5.82-6.02,10.41-13.06,13.78-21.13,3.36-8.07,5.04-16.7,5.04-25.91s-1.68-17.63-5.04-25.7c-3.36-8.07-7.95-15.11-13.78-21.13ZM242.34,850.95c-3.98,4.11-8.84,6.16-14.6,6.16s-10.62-2.05-14.6-6.16c-3.98-4.1-5.96-9.13-5.96-15.07s1.99-10.97,5.96-15.08c3.98-4.11,8.84-6.16,14.6-6.16s10.62,2.05,14.6,6.16c3.98,4.11,5.96,9.13,5.96,15.08s-1.99,10.97-5.96,15.07ZM479.6,787.46c-5.34-5.52-11.61-9.87-18.81-13.06-7.19-3.18-14.84-4.78-22.92-4.78s-14.87,1.35-21.18,4.04c-6.31,2.69-11.72,5.95-16.24,9.77-4.39-3.82-9.73-7.08-16.04-9.77-6.3-2.69-13.36-4.04-21.18-4.04s-15.73,1.59-22.92,4.78c-7.2,3.19-13.47,7.54-18.81,13.06-5.34,5.52-9.56,12-12.64,19.43-3.08,7.43-4.62,15.33-4.62,23.68v49.26c0,3.12.58,6.02,1.75,8.71,1.16,2.69,2.7,5.06,4.63,7.11,1.92,2.05,4.21,3.68,6.89,4.88,2.67,1.21,5.51,1.81,8.53,1.81s5.82-.6,8.43-1.81c2.6-1.2,4.9-2.83,6.89-4.88,1.99-2.05,3.56-4.42,4.73-7.11,1.16-2.69,1.75-5.59,1.75-8.71v-49.26c0-4.39,1.51-8.14,4.52-11.26,3.01-3.11,6.65-4.67,10.9-4.67s7.88,1.56,10.89,4.67c3.01,3.12,4.52,6.87,4.52,11.26v49.26c0,3.12.58,6.02,1.75,8.71,1.16,2.69,2.74,5.06,4.73,7.11,1.99,2.05,4.28,3.68,6.89,4.88,2.6,1.21,5.41,1.81,8.43,1.81s5.86-.6,8.53-1.81c2.67-1.2,4.97-2.83,6.89-4.88,1.92-2.05,3.46-4.42,4.63-7.11,1.16-2.69,1.75-5.59,1.75-8.71v-49.26c0-4.39,1.5-8.14,4.52-11.26,3.01-3.11,6.71-4.67,11.1-4.67s7.88,1.56,10.9,4.67c3.01,3.12,4.52,6.87,4.52,11.26v49.26c0,3.12.58,6.02,1.75,8.71,1.16,2.69,2.7,5.06,4.63,7.11,1.92,2.05,4.21,3.68,6.89,4.88,2.67,1.21,5.51,1.81,8.53,1.81s5.82-.6,8.43-1.81c2.6-1.2,4.9-2.83,6.89-4.88,1.99-2.05,3.56-4.42,4.73-7.11,1.16-2.69,1.75-5.59,1.75-8.71v-49.26c0-8.35-1.54-16.25-4.62-23.68-3.09-7.43-7.3-13.91-12.65-19.43ZM134.61,766.97c-6.45-7.29-14.12-13.09-23.03-17.41-8.91-4.32-18.5-6.48-28.78-6.48h-44.2c-3.57,0-6.96.71-10.18,2.12-3.22,1.42-6,3.36-8.33,5.84-2.33,2.48-4.18,5.35-5.55,8.6-1.37,3.26-2.06,6.72-2.06,10.4v105.33c0,3.68.68,7.19,2.06,10.51,1.37,3.33,3.22,6.2,5.55,8.6,2.33,2.41,5.1,4.32,8.33,5.73,3.22,1.42,6.61,2.12,10.18,2.12h44.2c10.28,0,19.87-2.16,28.78-6.48,8.91-4.32,16.58-10.12,23.03-17.41,6.44-7.29,11.51-15.75,15.21-25.38,3.7-9.63,5.55-19.75,5.55-30.37s-1.85-20.74-5.55-30.37c-3.7-9.63-8.77-18.08-15.21-25.37ZM102.54,834.71c-1.64,3.75-3.87,7.01-6.68,9.77-2.81,2.76-6.1,4.96-9.87,6.58-3.77,1.63-7.71,2.44-11.82,2.44h-9.25v-61.58h9.25c4.11,0,8.05.81,11.82,2.44,3.77,1.63,7.06,3.82,9.87,6.58,2.81,2.76,5.04,6.02,6.68,9.77,1.65,3.75,2.47,7.75,2.47,12s-.82,8.25-2.47,12ZM696.09,766.97c-6.45-7.29-14.12-13.09-23.03-17.41-8.91-4.32-18.5-6.48-28.78-6.48h-44.2c-3.57,0-6.96.71-10.18,2.12-3.22,1.42-6,3.36-8.33,5.84-2.33,2.48-4.18,5.35-5.55,8.6-1.37,3.26-2.06,6.72-2.06,10.4v105.33c0,3.68.68,7.19,2.06,10.51,1.37,3.33,3.22,6.2,5.55,8.6,2.33,2.41,5.1,4.32,8.33,5.73,3.22,1.42,6.61,2.12,10.18,2.12h44.2c10.28,0,19.87-2.16,28.78-6.48,8.91-4.32,16.58-10.12,23.03-17.41,6.44-7.29,11.51-15.75,15.21-25.38,3.7-9.63,5.55-19.75,5.55-30.37s-1.85-20.74-5.55-30.37c-3.7-9.63-8.77-18.08-15.21-25.37ZM664.02,834.71c-1.64,3.75-3.87,7.01-6.68,9.77-2.81,2.76-6.1,4.96-9.87,6.58-3.77,1.63-7.71,2.44-11.82,2.44h-9.25v-61.58h9.25c4.11,0,8.05.81,11.82,2.44,3.77,1.63,7.06,3.82,9.87,6.58,2.81,2.76,5.04,6.02,6.68,9.77,1.65,3.75,2.47,7.75,2.47,12s-.82,8.25-2.47,12ZM550.12,776.31c-1.92-2.05-4.21-3.68-6.89-4.88-2.67-1.2-5.52-1.81-8.53-1.81s-5.83.61-8.43,1.81c-2.6,1.21-4.9,2.83-6.89,4.88-1.99,2.05-3.57,4.43-4.73,7.11-1.17,2.69-1.75,5.59-1.75,8.71v87.7c0,3.12.58,6.02,1.75,8.71,1.16,2.69,2.74,5.06,4.73,7.11,1.99,2.05,4.28,3.68,6.89,4.88,2.6,1.21,5.41,1.81,8.43,1.81s5.86-.6,8.53-1.81c2.67-1.2,4.97-2.83,6.89-4.88,1.92-2.05,3.46-4.42,4.63-7.11,1.16-2.69,1.75-5.59,1.75-8.71v-87.7c0-3.11-.58-6.02-1.75-8.71-1.17-2.69-2.71-5.06-4.63-7.11ZM909.39,820.05c1.99-2.05,4.32-3.68,6.99-4.89,2.67-1.2,5.52-1.8,8.53-1.8,3.98,0,7.09.78,9.36,2.33,2.26,1.56,4.39,3.22,6.37,4.99,1.99,1.77,4.08,3.43,6.27,4.99,2.19,1.56,5.28,2.33,9.25,2.33,3.42,0,6.61-.78,9.56-2.33,2.95-1.56,5.48-3.5,7.61-5.84,2.12-2.33,3.77-4.95,4.93-7.86,1.16-2.9,1.75-5.7,1.75-8.39,0-2.55-.51-5.1-1.54-7.64-1.03-2.55-2.64-4.96-4.83-7.22-6.17-6.51-13.26-11.54-21.28-15.08-8.02-3.54-17.17-5.31-27.45-5.31-9.05,0-17.55,1.77-25.49,5.31-7.95,3.54-14.91,8.39-20.87,14.55-5.96,6.16-10.66,13.31-14.09,21.45-3.43,8.14-5.14,16.88-5.14,26.23s1.71,18.12,5.14,26.33c3.42,8.21,8.12,15.39,14.09,21.55,5.96,6.16,12.92,11.01,20.87,14.55,7.95,3.54,16.45,5.31,25.49,5.31,10.28,0,19.43-1.77,27.45-5.31,8.02-3.54,15.11-8.56,21.28-15.08,4.25-4.39,6.37-9.41,6.37-15.08,0-3.82-.79-7.22-2.37-10.19-1.58-2.97-3.57-5.52-5.96-7.65-2.4-2.12-4.97-3.72-7.71-4.78-2.74-1.06-5.35-1.59-7.81-1.59-3.84,0-6.89.78-9.15,2.34-2.26,1.56-4.39,3.22-6.37,4.99-1.99,1.77-4.15,3.43-6.48,4.99-2.33,1.56-5.42,2.34-9.25,2.34-3.01,0-5.86-.6-8.53-1.81-2.67-1.2-5-2.83-6.99-4.88-1.99-2.05-3.57-4.46-4.73-7.22-1.17-2.76-1.75-5.7-1.75-8.81s.58-6.02,1.75-8.71c1.16-2.69,2.74-5.06,4.73-7.11ZM1090.63,863.9l-28.37-27.82,28.37-27.82c2.19-2.12,3.8-4.6,4.83-7.43,1.03-2.83,1.54-5.74,1.54-8.71,0-6.37-2.09-11.71-6.27-16.03-4.18-4.32-9.36-6.48-15.52-6.48-2.74,0-5.48.53-8.22,1.59-2.74,1.06-5.14,2.73-7.19,4.99l-22.62,24.63v-35.25c0-3.11-.58-6.02-1.75-8.71-1.17-2.69-2.71-5.06-4.63-7.11-1.92-2.05-4.21-3.68-6.89-4.89-2.67-1.2-5.52-1.8-8.53-1.8s-5.83.6-8.43,1.8c-2.6,1.21-4.9,2.83-6.89,4.89-1.99,2.05-3.57,4.43-4.73,7.11-1.17,2.69-1.75,5.59-1.75,8.71v114.24c0,3.12.58,6.02,1.75,8.71,1.16,2.69,2.74,5.06,4.73,7.11,1.99,2.05,4.28,3.68,6.89,4.88,2.6,1.21,5.41,1.81,8.43,1.81s5.86-.6,8.53-1.81c2.67-1.2,4.97-2.83,6.89-4.88,1.92-2.05,3.46-4.42,4.63-7.11,1.16-2.69,1.75-5.59,1.75-8.71v-8.49l22.62,24.63c2.06,2.27,4.45,3.89,7.19,4.88,2.74.99,5.48,1.49,8.22,1.49,6.17,0,11.34-2.16,15.52-6.48,4.18-4.32,6.27-9.66,6.27-16.03,0-2.97-.51-5.84-1.54-8.6-1.03-2.76-2.64-5.2-4.83-7.33ZM840.83,776.31c-1.92-2.05-4.21-3.68-6.89-4.88-2.67-1.2-5.52-1.81-8.53-1.81s-5.83.61-8.43,1.81c-2.6,1.21-4.9,2.83-6.89,4.88-1.99,2.05-3.57,4.43-4.73,7.11-1.17,2.69-1.75,5.59-1.75,8.71v49.27c0,4.39-1.54,8.14-4.63,11.25-3.08,3.11-6.75,4.67-11,4.67s-7.89-1.56-10.9-4.67c-3.02-3.11-4.52-6.86-4.52-11.25v-49.27c0-3.11-.58-6.02-1.75-8.71-1.17-2.69-2.74-5.06-4.73-7.11-1.99-2.05-4.29-3.68-6.89-4.88-2.6-1.2-5.42-1.81-8.43-1.81s-5.86.61-8.53,1.81c-2.67,1.21-4.97,2.83-6.89,4.88-1.92,2.05-3.46,4.43-4.63,7.11-1.17,2.69-1.75,5.59-1.75,8.71v49.27c0,8.35,1.54,16.24,4.62,23.68,3.09,7.43,7.3,13.91,12.64,19.43,5.35,5.52,11.62,9.87,18.81,13.06,7.19,3.19,14.83,4.78,22.92,4.78s15.93-1.59,23.13-4.78c7.19-3.19,13.47-7.54,18.81-13.06s9.56-12,12.64-19.43c3.09-7.43,4.63-15.32,4.63-23.68v-49.27c0-3.11-.59-6.02-1.75-8.71-1.17-2.69-2.71-5.06-4.62-7.11Z"/>
  <g>
    <path class="cls-9" d="M311.54,362.56v129.83c0,4.45,3.57,8.04,7.97,8.04h166.19c4.4,0,7.97-3.6,7.97-8.04v-129.83c0-4.45-3.58-8.05-7.97-8.05h-166.19c-4.41,0-7.97,3.61-7.97,8.05Z"/>
    <rect class="cls-14" x="418.27" y="355.32" width="21.46" height="145.93"/>
    <g class="cls-20">
      <path class="cls-16" d="M311.62,361.4c.7-.2,1.43-.3,2.18-.3h166.19c4.41,0,7.97,3.61,7.97,8.04v129.83c0,.39-.03.79-.08,1.16,3.34-.95,5.8-4.06,5.8-7.74v-129.83c0-4.45-3.58-8.05-7.97-8.05h-166.19c-4.02,0-7.34,3-7.89,6.89Z"/>
    </g>
    <g class="cls-21">
      <path class="cls-10" d="M311.54,362.56v129.83c0,4.45,3.57,8.04,7.97,8.04h166.19c4.4,0,7.97-3.6,7.97-8.04v-5.04s-156.42,0-156.42,0c-4.41,0-7.97-3.6-7.97-8.04v-124.8s-9.76,0-9.76,0c-4.41,0-7.97,3.61-7.97,8.05Z"/>
    </g>
    <path class="cls-8" d="M308.78,492.39v-129.83c0-5.97,4.81-10.83,10.73-10.83h166.18c5.92,0,10.73,4.86,10.73,10.83v129.83c0,5.97-4.81,10.83-10.73,10.83h-166.18c-5.92,0-10.73-4.86-10.73-10.83ZM319.51,357.29c-2.88,0-5.22,2.36-5.22,5.27v129.83c0,2.9,2.34,5.27,5.22,5.27h166.18c2.88,0,5.22-2.36,5.22-5.27v-129.83c0-2.9-2.34-5.27-5.22-5.27h-166.18Z"/>
    <rect class="cls-16" x="456.17" y="474.66" width="26.95" height="15.91" rx="3.21" ry="3.21" transform="translate(939.29 965.24) rotate(-180)"/>
    <path class="cls-8" d="M365.54,503.22c1.52,0,2.76-1.25,2.76-2.78v-145.11c0-1.54-1.23-2.78-2.76-2.78s-2.76,1.24-2.76,2.78v145.11c0,1.54,1.23,2.78,2.76,2.78Z"/>
    <path class="cls-14" d="M406.95,377c-1.87-2.11-4.09-3.79-6.67-5.04-2.58-1.25-5.36-1.87-8.33-1.87h-12.79c-1.03,0-2.01.21-2.95.61-.93.41-1.74.97-2.41,1.69-.68.72-1.21,1.55-1.61,2.49-.4.94-.6,1.95-.6,3.01v30.49c0,1.07.2,2.08.6,3.04.4.96.93,1.79,1.61,2.49.67.7,1.48,1.25,2.41,1.66.93.41,1.91.61,2.95.61h12.79c2.98,0,5.75-.62,8.33-1.87,2.58-1.25,4.8-2.93,6.67-5.04,1.86-2.11,3.33-4.56,4.4-7.35,1.07-2.79,1.61-5.72,1.61-8.79,0-3.07-.54-6-1.61-8.79-1.07-2.79-2.54-5.23-4.4-7.34ZM397.67,396.61c-.48,1.09-1.12,2.03-1.93,2.83-.81.8-1.77,1.43-2.86,1.91-1.09.47-2.23.71-3.42.71h-2.68v-17.82h2.68c1.19,0,2.33.24,3.42.71,1.09.47,2.04,1.11,2.86,1.91.81.8,1.46,1.74,1.93,2.83.48,1.09.71,2.24.71,3.47s-.24,2.39-.71,3.47Z"/>
  </g>
</svg>