<?xml version="1.0" encoding="UTF-8"?>
<svg id="Capa_2" data-name="Capa 2" xmlns="http://www.w3.org/2000/svg" viewBox="0 0 1109.49 185.73">
  <defs>
    <style>
      .cls-1 {
        fill: #371a45;
      }

      .cls-1, .cls-2 {
        stroke-width: 0px;
      }

      .cls-2 {
        fill: #ff204e;
      }
    </style>
  </defs>
  <g id="Capa_1-2" data-name="Capa 1">
    <g>
      <path class="cls-1" d="m924.92,185.73c-10.76,0-21.03-2.15-30.54-6.38-9.37-4.17-17.7-9.98-24.76-17.27-6.37-6.58-11.57-14.22-15.48-22.75-.02.04-.04.09-.05.13-3.68,8.86-8.8,16.73-15.23,23.37-6.44,6.65-14.09,11.97-22.73,15.79-8.75,3.88-18.22,5.84-28.15,5.84s-19.19-1.97-27.94-5.84c-8.64-3.82-16.28-9.14-22.73-15.79-6.42-6.64-11.55-14.5-15.23-23.37-.75-1.82-1.43-3.66-2.03-5.52-3.89,8.28-8.8,15.8-14.64,22.42-7.52,8.51-16.59,15.37-26.94,20.39-10.57,5.12-22.07,7.72-34.19,7.72h-44.2c-5.29,0-10.39-1.07-15.17-3.18-4.69-2.06-8.82-4.91-12.27-8.48-2.62-2.7-4.85-5.82-6.63-9.28-1.72,3.85-4.01,7.31-6.81,10.3-3.04,3.26-6.71,5.87-10.89,7.74-4.25,1.92-8.84,2.9-13.61,2.9s-9.41-.99-13.64-2.95c-3.98-1.84-7.56-4.37-10.62-7.54-2.16-2.23-4.02-4.73-5.55-7.47-1.53,2.74-3.4,5.24-5.56,7.48-3.05,3.15-6.63,5.69-10.62,7.54-4.22,1.95-8.81,2.95-13.62,2.95s-9.36-.98-13.63-2.91c-4.16-1.87-7.83-4.48-10.88-7.75-2.89-3.08-5.24-6.69-6.98-10.71-1.85-4.26-2.79-8.89-2.79-13.74v-49.26c0-1.1-.24-1.7-.98-2.46-.72-.74-1.17-.87-1.96-.87-1.13,0-1.59.27-2.17.88-.73.75-.96,1.35-.96,2.45v49.26c0,4.84-.94,9.47-2.79,13.75-1.74,4.02-4.09,7.62-6.99,10.72-3.04,3.26-6.7,5.86-10.88,7.74-4.26,1.92-8.84,2.9-13.62,2.9s-9.41-.99-13.64-2.95c-3.98-1.84-7.56-4.37-10.62-7.54-3.03-3.12-5.47-6.79-7.23-10.87-1.85-4.25-2.79-8.88-2.79-13.74v-49.26c0-1.1-.24-1.7-.98-2.46-.72-.75-1.17-.87-1.96-.87s-1.23.12-1.97.88c-.73.76-.97,1.35-.97,2.45v49.26c0,4.85-.94,9.47-2.79,13.75-1.77,4.08-4.2,7.74-7.24,10.87-3.05,3.16-6.63,5.69-10.62,7.54-4.22,1.95-8.81,2.95-13.62,2.95s-9.36-.98-13.63-2.9c-4.17-1.87-7.83-4.48-10.88-7.75-2.89-3.08-5.24-6.69-6.98-10.71-1.85-4.25-2.79-8.88-2.79-13.74v-.13c-2.79,4.33-5.97,8.34-9.52,12.01-6.92,7.15-15.12,12.85-24.36,16.96-9.37,4.16-19.5,6.27-30.11,6.27s-20.74-2.12-30.05-6.29c-9.16-4.1-17.31-9.8-24.22-16.94-6.8-7.02-12.24-15.31-16.18-24.65-3.67,7.24-8.14,13.87-13.36,19.77-7.52,8.51-16.59,15.37-26.94,20.39-10.57,5.12-22.07,7.72-34.19,7.72h-44.2c-5.29,0-10.39-1.07-15.17-3.18-4.69-2.06-8.82-4.91-12.27-8.48-3.43-3.53-6.17-7.77-8.15-12.57-1.99-4.82-3.01-9.99-3.01-15.34V39.57c0-5.37,1.03-10.53,3.05-15.33,1.94-4.63,4.63-8.78,7.99-12.35,3.48-3.69,7.64-6.63,12.39-8.71,4.79-2.11,9.89-3.17,15.17-3.17h44.2c12.11,0,23.62,2.6,34.19,7.72,10.36,5.02,19.42,11.88,26.94,20.39,7.41,8.39,13.31,18.21,17.54,29.2.69,1.78,1.32,3.58,1.89,5.41,2.93-4.68,6.31-9.01,10.11-12.94,6.9-7.13,15.05-12.83,24.22-16.94,9.32-4.17,19.43-6.29,30.05-6.29s20.73,2.11,30.11,6.27c9.25,4.11,17.44,9.81,24.36,16.96,6.15,6.36,11.19,13.75,15.02,22.01.03-.08.07-.16.1-.23,3.68-8.87,8.81-16.73,15.23-23.37,6.45-6.66,14.09-11.97,22.73-15.79,8.76-3.88,18.16-5.84,27.94-5.84s18.2,1.69,26.03,5.03c4.05,1.73,7.8,3.68,11.25,5.85,3.49-2.17,7.26-4.13,11.31-5.85,7.83-3.34,16.59-5.03,26.04-5.03s19.18,1.96,27.94,5.84c8.64,3.83,16.29,9.14,22.73,15.8,4.67,4.82,8.65,10.28,11.89,16.32v-2.84c0-4.85.94-9.47,2.79-13.75,1.76-4.07,4.2-7.73,7.24-10.87,3.06-3.15,6.62-5.69,10.62-7.54,4.25-1.96,8.84-2.95,13.64-2.95s9.33.97,13.61,2.9c4.18,1.88,7.84,4.49,10.89,7.74.8.86,1.57,1.76,2.28,2.69v-.31c0-5.37,1.03-10.53,3.05-15.34,1.94-4.62,4.63-8.78,7.99-12.34,3.48-3.69,7.64-6.63,12.39-8.71,4.79-2.11,9.89-3.17,15.17-3.17h44.2c12.11,0,23.62,2.6,34.19,7.72,10.36,5.02,19.42,11.88,26.94,20.39,5.36,6.07,9.93,12.88,13.64,20.35.08-.18.15-.37.23-.55,1.74-4.01,4.09-7.61,6.99-10.71,3.04-3.25,6.7-5.86,10.87-7.74,4.3-1.93,8.88-2.9,13.63-2.9s9.38.99,13.62,2.95c4.01,1.86,7.57,4.39,10.62,7.53,3.05,3.15,5.48,6.81,7.24,10.87,1.86,4.3,2.8,8.92,2.8,13.76v49.27c0,1.1.23,1.69.97,2.45.74.76,1.18.88,1.97.88s1.34-.15,2.16-.98c.75-.76.98-1.3.98-2.35v-49.27c0-4.84.94-9.47,2.79-13.75,1.76-4.06,4.19-7.72,7.23-10.87,3.06-3.15,6.63-5.69,10.62-7.54,4.25-1.96,8.84-2.95,13.64-2.95s9.33.97,13.61,2.9c4.18,1.88,7.83,4.48,10.88,7.73,2.91,3.12,5.26,6.72,6.99,10.72,1.84,4.24,2.77,8.81,2.8,13.58,2.9-4.51,6.21-8.71,9.93-12.55,7.05-7.28,15.38-13.09,24.76-17.27,9.52-4.23,19.79-6.38,30.54-6.38,11.96,0,22.88,2.14,32.45,6.36,8.83,3.9,16.8,9.37,23.73,16.3v-12.82c0-4.85.94-9.47,2.79-13.75,1.77-4.08,4.2-7.74,7.24-10.87,3.05-3.15,6.62-5.68,10.61-7.53,4.25-1.96,8.83-2.95,13.64-2.95s9.34.97,13.61,2.89c4.19,1.89,7.84,4.49,10.89,7.75,2.89,3.09,5.24,6.7,6.98,10.71,1.86,4.3,2.8,8.92,2.8,13.76v3.11l.97-1.05c3.32-3.66,7.34-6.43,11.89-8.19,4.15-1.61,8.43-2.43,12.69-2.43,9.49,0,17.95,3.55,24.46,10.27,6.43,6.65,9.83,15.23,9.83,24.84,0,4.44-.78,8.83-2.31,13.04-1.68,4.62-4.33,8.72-7.9,12.18l-19.11,18.74,19.16,18.78c3.49,3.38,6.14,7.42,7.82,11.94,1.55,4.16,2.34,8.55,2.34,13.03,0,9.61-3.4,18.19-9.82,24.83-6.51,6.72-14.97,10.27-24.46,10.27-4.17,0-8.36-.75-12.44-2.22-4.65-1.68-8.76-4.45-12.19-8.24l-5.96-6.49c-1.36,2.29-2.95,4.4-4.74,6.32-3.04,3.26-6.71,5.87-10.89,7.74-4.25,1.92-8.84,2.9-13.61,2.9s-9.41-.99-13.64-2.95c-3.98-1.84-7.56-4.37-10.62-7.54-3.03-3.12-5.47-6.79-7.23-10.87-.3-.68-.57-1.37-.81-2.06-.16.17-.33.35-.49.52-7.2,7.6-15.71,13.63-25.21,17.82-9.56,4.22-20.48,6.37-32.45,6.37Zm0-90.25c-1.25,0-2.38.23-3.45.71-1.22.55-2.25,1.26-3.13,2.18-.94.97-1.66,2.06-2.22,3.36-.47,1.09-.7,2.29-.7,3.66s.24,2.68.75,3.87c.56,1.33,1.27,2.42,2.17,3.36.89.92,1.91,1.63,3.14,2.18,1.07.48,2.2.72,3.45.72,1.79,0,2.45-.3,2.46-.3,1.74-1.17,3.46-2.49,5-3.87,2.3-2.05,4.79-4,7.4-5.81-.02-.01-.04-.03-.06-.04-2.58-1.83-5.05-3.8-7.35-5.85-1.52-1.35-3.2-2.67-4.96-3.89-.23-.07-.97-.26-2.49-.26Zm-697.17,1.27c-2.4,0-4.04.68-5.66,2.36-1.69,1.74-2.41,3.62-2.41,6.28s.72,4.53,2.4,6.27c1.63,1.68,3.27,2.36,5.67,2.36s4.04-.68,5.66-2.36c1.69-1.75,2.41-3.62,2.41-6.28s-.72-4.53-2.41-6.28c-1.62-1.68-3.27-2.36-5.66-2.36Zm745.35,8.73c2.4,1.34,4.68,2.97,6.83,4.88.4.35.79.72,1.17,1.09v-12.07c-2.37,2.34-5.05,4.39-8,6.11Zm-895.69,4.64c1.25-.23,2.47-.61,3.68-1.13,2.36-1.02,4.35-2.34,6.07-4.03,1.67-1.64,2.97-3.55,3.97-5.83.94-2.15,1.4-4.41,1.4-6.91s-.46-4.75-1.4-6.9c-1-2.29-2.3-4.2-3.98-5.85-1.71-1.68-3.7-3-6.07-4.03-1.2-.52-2.42-.89-3.67-1.13v35.8Zm561.48,0c1.25-.23,2.47-.61,3.68-1.13,2.36-1.02,4.35-2.34,6.07-4.03,1.67-1.64,2.97-3.55,3.97-5.83.94-2.15,1.4-4.41,1.4-6.91s-.46-4.75-1.4-6.9c-1-2.29-2.3-4.2-3.98-5.85-1.71-1.68-3.7-3-6.07-4.03-1.2-.52-2.42-.89-3.67-1.13v35.8Z"/>
      <path class="cls-2" d="m273.28,58.57c-5.83-6.02-12.64-10.76-20.46-14.23-7.81-3.47-16.18-5.2-25.08-5.2s-17.24,1.74-24.98,5.2c-7.74,3.47-14.53,8.21-20.35,14.23-5.83,6.02-10.42,13.06-13.78,21.13-3.36,8.07-5.04,16.64-5.04,25.7s1.68,17.84,5.04,25.91c3.36,8.07,7.95,15.11,13.78,21.13,5.82,6.02,12.61,10.76,20.35,14.23,7.74,3.47,16.07,5.2,24.98,5.2s17.27-1.73,25.08-5.2c7.81-3.47,14.63-8.21,20.46-14.23,5.82-6.02,10.41-13.06,13.78-21.13,3.36-8.07,5.04-16.7,5.04-25.91s-1.68-17.63-5.04-25.7c-3.36-8.07-7.95-15.11-13.78-21.13Zm-30.94,61.9c-3.98,4.11-8.84,6.16-14.6,6.16s-10.62-2.05-14.6-6.16c-3.98-4.1-5.96-9.13-5.96-15.07s1.99-10.97,5.96-15.08c3.98-4.11,8.84-6.16,14.6-6.16s10.62,2.05,14.6,6.16c3.98,4.11,5.96,9.13,5.96,15.08s-1.99,10.97-5.96,15.07Zm237.26-63.49c-5.34-5.52-11.61-9.87-18.81-13.06-7.19-3.18-14.84-4.78-22.92-4.78s-14.87,1.35-21.18,4.04c-6.31,2.69-11.72,5.95-16.24,9.77-4.39-3.82-9.73-7.08-16.04-9.77-6.3-2.69-13.36-4.04-21.18-4.04s-15.73,1.59-22.92,4.78c-7.2,3.19-13.47,7.54-18.81,13.06-5.34,5.52-9.56,12-12.64,19.43-3.08,7.43-4.62,15.33-4.62,23.68v49.26c0,3.12.58,6.02,1.75,8.71,1.16,2.69,2.7,5.06,4.63,7.11,1.92,2.05,4.21,3.68,6.89,4.88,2.67,1.21,5.51,1.81,8.53,1.81s5.82-.6,8.43-1.81c2.6-1.2,4.9-2.83,6.89-4.88,1.99-2.05,3.56-4.42,4.73-7.11,1.16-2.69,1.75-5.59,1.75-8.71v-49.26c0-4.39,1.51-8.14,4.52-11.26,3.01-3.11,6.65-4.67,10.9-4.67s7.88,1.56,10.89,4.67c3.01,3.12,4.52,6.87,4.52,11.26v49.26c0,3.12.58,6.02,1.75,8.71,1.16,2.69,2.74,5.06,4.73,7.11,1.99,2.05,4.28,3.68,6.89,4.88,2.6,1.21,5.41,1.81,8.43,1.81s5.86-.6,8.53-1.81c2.67-1.2,4.97-2.83,6.89-4.88,1.92-2.05,3.46-4.42,4.63-7.11,1.16-2.69,1.75-5.59,1.75-8.71v-49.26c0-4.39,1.5-8.14,4.52-11.26,3.01-3.11,6.71-4.67,11.1-4.67s7.88,1.56,10.9,4.67c3.01,3.12,4.52,6.87,4.52,11.26v49.26c0,3.12.58,6.02,1.75,8.71,1.16,2.69,2.7,5.06,4.63,7.11,1.92,2.05,4.21,3.68,6.89,4.88,2.67,1.21,5.51,1.81,8.53,1.81s5.82-.6,8.43-1.81c2.6-1.2,4.9-2.83,6.89-4.88,1.99-2.05,3.56-4.42,4.73-7.11,1.16-2.69,1.75-5.59,1.75-8.71v-49.26c0-8.35-1.54-16.25-4.62-23.68-3.09-7.43-7.3-13.91-12.65-19.43Zm-344.99-20.49c-6.45-7.29-14.12-13.09-23.03-17.41-8.91-4.32-18.5-6.48-28.78-6.48h-44.2c-3.57,0-6.96.71-10.18,2.12-3.22,1.42-6,3.36-8.33,5.84-2.33,2.48-4.18,5.35-5.55,8.6-1.37,3.26-2.06,6.72-2.06,10.4v105.33c0,3.68.68,7.19,2.06,10.51,1.37,3.33,3.22,6.2,5.55,8.6,2.33,2.41,5.1,4.32,8.33,5.73,3.22,1.42,6.61,2.12,10.18,2.12h44.2c10.28,0,19.87-2.16,28.78-6.48,8.91-4.32,16.58-10.12,23.03-17.41,6.44-7.29,11.51-15.75,15.21-25.38,3.7-9.63,5.55-19.75,5.55-30.37s-1.85-20.74-5.55-30.37c-3.7-9.63-8.77-18.08-15.21-25.37Zm-32.07,67.74c-1.64,3.75-3.87,7.01-6.68,9.77-2.81,2.76-6.1,4.96-9.87,6.58-3.77,1.63-7.71,2.44-11.82,2.44h-9.25v-61.58h9.25c4.11,0,8.05.81,11.82,2.44,3.77,1.63,7.06,3.82,9.87,6.58,2.81,2.76,5.04,6.02,6.68,9.77,1.65,3.75,2.47,7.75,2.47,12s-.82,8.25-2.47,12ZM696.09,36.49c-6.45-7.29-14.12-13.09-23.03-17.41-8.91-4.32-18.5-6.48-28.78-6.48h-44.2c-3.57,0-6.96.71-10.18,2.12-3.22,1.42-6,3.36-8.33,5.84-2.33,2.48-4.18,5.35-5.55,8.6-1.37,3.26-2.06,6.72-2.06,10.4v105.33c0,3.68.68,7.19,2.06,10.51,1.37,3.33,3.22,6.2,5.55,8.6,2.33,2.41,5.1,4.32,8.33,5.73,3.22,1.42,6.61,2.12,10.18,2.12h44.2c10.28,0,19.87-2.16,28.78-6.48,8.91-4.32,16.58-10.12,23.03-17.41,6.44-7.29,11.51-15.75,15.21-25.38,3.7-9.63,5.55-19.75,5.55-30.37s-1.85-20.74-5.55-30.37c-3.7-9.63-8.77-18.08-15.21-25.37Zm-32.07,67.74c-1.64,3.75-3.87,7.01-6.68,9.77-2.81,2.76-6.1,4.96-9.87,6.58-3.77,1.63-7.71,2.44-11.82,2.44h-9.25v-61.58h9.25c4.11,0,8.05.81,11.82,2.44,3.77,1.63,7.06,3.82,9.87,6.58,2.81,2.76,5.04,6.02,6.68,9.77,1.65,3.75,2.47,7.75,2.47,12s-.82,8.25-2.47,12Zm-113.9-58.4c-1.92-2.05-4.21-3.68-6.89-4.88-2.67-1.2-5.52-1.81-8.53-1.81s-5.83.61-8.43,1.81c-2.6,1.21-4.9,2.83-6.89,4.88-1.99,2.05-3.57,4.43-4.73,7.11-1.17,2.69-1.75,5.59-1.75,8.71v87.7c0,3.12.58,6.02,1.75,8.71,1.16,2.69,2.74,5.06,4.73,7.11,1.99,2.05,4.28,3.68,6.89,4.88,2.6,1.21,5.41,1.81,8.43,1.81s5.86-.6,8.53-1.81c2.67-1.2,4.97-2.83,6.89-4.88,1.92-2.05,3.46-4.42,4.63-7.11,1.16-2.69,1.75-5.59,1.75-8.71V61.65c0-3.11-.58-6.02-1.75-8.71-1.17-2.69-2.71-5.06-4.63-7.11Zm359.28,43.75c1.99-2.05,4.32-3.68,6.99-4.89,2.67-1.2,5.52-1.8,8.53-1.8,3.98,0,7.09.78,9.36,2.33,2.26,1.56,4.39,3.22,6.37,4.99,1.99,1.77,4.08,3.43,6.27,4.99,2.19,1.56,5.28,2.33,9.25,2.33,3.42,0,6.61-.78,9.56-2.33,2.95-1.56,5.48-3.5,7.61-5.84,2.12-2.33,3.77-4.95,4.93-7.86,1.16-2.9,1.75-5.7,1.75-8.39,0-2.55-.51-5.1-1.54-7.64-1.03-2.55-2.64-4.96-4.83-7.22-6.17-6.51-13.26-11.54-21.28-15.08-8.02-3.54-17.17-5.31-27.45-5.31-9.05,0-17.55,1.77-25.49,5.31-7.95,3.54-14.91,8.39-20.87,14.55-5.96,6.16-10.66,13.31-14.09,21.45-3.43,8.14-5.14,16.88-5.14,26.23s1.71,18.12,5.14,26.33c3.42,8.21,8.12,15.39,14.09,21.55,5.96,6.16,12.92,11.01,20.87,14.55,7.95,3.54,16.45,5.31,25.49,5.31,10.28,0,19.43-1.77,27.45-5.31,8.02-3.54,15.11-8.56,21.28-15.08,4.25-4.39,6.37-9.41,6.37-15.08,0-3.82-.79-7.22-2.37-10.19-1.58-2.97-3.57-5.52-5.96-7.65-2.4-2.12-4.97-3.72-7.71-4.78-2.74-1.06-5.35-1.59-7.81-1.59-3.84,0-6.89.78-9.15,2.34-2.26,1.56-4.39,3.22-6.37,4.99-1.99,1.77-4.15,3.43-6.48,4.99-2.33,1.56-5.42,2.34-9.25,2.34-3.01,0-5.86-.6-8.53-1.81-2.67-1.2-5-2.83-6.99-4.88-1.99-2.05-3.57-4.46-4.73-7.22-1.17-2.76-1.75-5.7-1.75-8.81s.58-6.02,1.75-8.71c1.16-2.69,2.74-5.06,4.73-7.11Zm181.23,43.85l-28.37-27.82,28.37-27.82c2.19-2.12,3.8-4.6,4.83-7.43,1.03-2.83,1.54-5.74,1.54-8.71,0-6.37-2.09-11.71-6.27-16.03-4.18-4.32-9.36-6.48-15.52-6.48-2.74,0-5.48.53-8.22,1.59-2.74,1.06-5.14,2.73-7.19,4.99l-22.62,24.63v-35.25c0-3.11-.58-6.02-1.75-8.71-1.17-2.69-2.71-5.06-4.63-7.11-1.92-2.05-4.21-3.68-6.89-4.89-2.67-1.2-5.52-1.8-8.53-1.8s-5.83.6-8.43,1.8c-2.6,1.21-4.9,2.83-6.89,4.89-1.99,2.05-3.57,4.43-4.73,7.11-1.17,2.69-1.75,5.59-1.75,8.71v114.24c0,3.12.58,6.02,1.75,8.71,1.16,2.69,2.74,5.06,4.73,7.11,1.99,2.05,4.28,3.68,6.89,4.88,2.6,1.21,5.41,1.81,8.43,1.81s5.86-.6,8.53-1.81c2.67-1.2,4.97-2.83,6.89-4.88,1.92-2.05,3.46-4.42,4.63-7.11,1.16-2.69,1.75-5.59,1.75-8.71v-8.49l22.62,24.63c2.06,2.27,4.45,3.89,7.19,4.88,2.74.99,5.48,1.49,8.22,1.49,6.17,0,11.34-2.16,15.52-6.48,4.18-4.32,6.27-9.66,6.27-16.03,0-2.97-.51-5.84-1.54-8.6-1.03-2.76-2.64-5.2-4.83-7.33Zm-249.8-87.59c-1.92-2.05-4.21-3.68-6.89-4.88-2.67-1.2-5.52-1.81-8.53-1.81s-5.83.61-8.43,1.81c-2.6,1.21-4.9,2.83-6.89,4.88-1.99,2.05-3.57,4.43-4.73,7.11-1.17,2.69-1.75,5.59-1.75,8.71v49.27c0,4.39-1.54,8.14-4.63,11.25-3.08,3.11-6.75,4.67-11,4.67s-7.89-1.56-10.9-4.67c-3.02-3.11-4.52-6.86-4.52-11.25v-49.27c0-3.11-.58-6.02-1.75-8.71-1.17-2.69-2.74-5.06-4.73-7.11-1.99-2.05-4.29-3.68-6.89-4.88-2.6-1.2-5.42-1.81-8.43-1.81s-5.86.61-8.53,1.81c-2.67,1.21-4.97,2.83-6.89,4.88-1.92,2.05-3.46,4.43-4.63,7.11-1.17,2.69-1.75,5.59-1.75,8.71v49.27c0,8.35,1.54,16.24,4.62,23.68,3.09,7.43,7.3,13.91,12.64,19.43,5.35,5.52,11.62,9.87,18.81,13.06,7.19,3.19,14.83,4.78,22.92,4.78s15.93-1.59,23.13-4.78c7.19-3.19,13.47-7.54,18.81-13.06,5.35-5.52,9.56-12,12.64-19.43,3.09-7.43,4.63-15.32,4.63-23.68v-49.27c0-3.11-.59-6.02-1.75-8.71-1.17-2.69-2.71-5.06-4.62-7.11Z"/>
    </g>
  </g>
</svg>